<?xml version="1.0" encoding="utf-8"?>
<!-- Generator: Adobe Illustrator 19.0.0, SVG Export Plug-In . SVG Version: 6.00 Build 0)  -->
<svg version="1.1" id="Layer_1" xmlns="http://www.w3.org/2000/svg" xmlns:xlink="http://www.w3.org/1999/xlink" x="0px" y="0px"
	 viewBox="0 0 300 97" style="enable-background:new 0 0 300 97;" xml:space="preserve">
<style type="text/css">
	.st0{fill:#1C1D00;}
	.st1{fill:#FFC900;}
</style>
<g>
	<path class="st0" d="M159.6,68.4L153.5,85c-0.5,1.2-0.9,2.5-1.4,3.7c-0.4,1.2-0.8,2.3-1.2,3.4h-0.1c-0.4-1.1-0.7-2.3-1.1-3.4
		c-0.4-1.2-0.9-2.4-1.4-3.7l-6-16.6H139l10.3,27.1h2.8l10.7-27.1H159.6L159.6,68.4z M168.2,68.4L168.2,68.4h-3.1v27.1h3.1V68.4
		L168.2,68.4z M192.4,92.1L192.4,92.1c-0.5,0.3-1.1,0.5-1.7,0.7c-0.7,0.2-1.4,0.4-2.3,0.6c-0.9,0.1-2,0.2-3.2,0.2
		c-1.3,0-2.6-0.2-3.8-0.7c-1.2-0.4-2.2-1.1-3.2-2c-0.9-0.9-1.6-2.1-2.2-3.6c-0.5-1.5-0.8-3.3-0.8-5.4h19.4c0-0.3,0-0.6,0.1-0.8
		c0-0.3,0-0.6,0-1c0-0.7-0.1-1.5-0.2-2.4c-0.1-0.9-0.3-1.8-0.6-2.7c-0.3-0.9-0.7-1.8-1.2-2.7c-0.5-0.9-1.1-1.6-1.9-2.3
		c-0.8-0.7-1.7-1.2-2.8-1.6c-1.1-0.4-2.3-0.6-3.8-0.6c-1.8,0-3.4,0.4-4.8,1c-1.5,0.7-2.7,1.7-3.8,3c-1.1,1.3-1.9,2.8-2.5,4.6
		c-0.6,1.8-0.9,3.8-0.9,6c0,2,0.3,3.8,0.9,5.5c0.6,1.7,1.4,3.1,2.5,4.3c1.1,1.2,2.4,2.2,4,2.8c1.5,0.7,3.3,1,5.3,1
		c1.5,0,2.8-0.1,3.9-0.3c1.1-0.2,2-0.4,2.8-0.7c0.8-0.3,1.3-0.5,1.7-0.7L192.4,92.1L192.4,92.1z M175.4,79.5L175.4,79.5
		c0.1-0.8,0.3-1.7,0.5-2.5c0.3-0.9,0.6-1.7,1.1-2.5c0.4-0.8,1-1.5,1.6-2.1c0.6-0.6,1.4-1.1,2.3-1.5c0.9-0.4,1.9-0.6,3-0.6
		c1.2,0,2.3,0.2,3.1,0.6c0.9,0.4,1.6,0.9,2.2,1.5c0.6,0.7,1,1.4,1.4,2.2c0.3,0.8,0.6,1.6,0.7,2.5c0.1,0.9,0.2,1.7,0.2,2.4H175.4
		L175.4,79.5z M199.6,68.4L199.6,68.4h-4.4v2.5h4.4v16.7c0,1,0.1,2.1,0.2,3.1c0.2,1,0.5,1.9,0.9,2.7c0.4,0.8,1.1,1.5,1.9,2
		c0.9,0.5,2,0.7,3.4,0.8c0.8,0,1.6-0.1,2.2-0.2c0.6-0.1,1.1-0.3,1.6-0.4l-0.3-2.4c-0.3,0.1-0.8,0.2-1.2,0.3
		c-0.5,0.1-1.1,0.1-1.7,0.1c-0.9,0-1.7-0.2-2.2-0.7c-0.6-0.4-1-1.1-1.2-1.9c-0.3-0.8-0.4-1.8-0.4-3V70.9h7.4v-2.5h-7.4v-6.1
		l-3.1,1.1V68.4L199.6,68.4z M234.5,79.1L234.5,79.1c0-2-0.2-3.6-0.7-4.9c-0.5-1.3-1-2.4-1.8-3.3c-0.7-0.8-1.5-1.5-2.4-1.9
		c-0.8-0.5-1.7-0.8-2.4-0.9c-0.8-0.2-1.5-0.3-2-0.2c-1.5,0-2.8,0.3-4,0.7c-1.2,0.5-2.2,1.1-3.1,1.9c-0.9,0.8-1.5,1.7-2,2.7H216
		l-0.2-4.7h-2.8c0,0.7,0.1,1.4,0.1,2.1c0,0.7,0,1.4,0.1,2.1c0,0.7,0,1.5,0,2.4v20.5h3.1V78.8c0-1.1,0.2-2.1,0.6-3.1
		c0.4-1,1-1.9,1.7-2.7c0.7-0.8,1.6-1.4,2.6-1.9c1-0.5,2-0.7,3.2-0.7c1.3,0,2.5,0.3,3.4,0.7c0.9,0.5,1.6,1.2,2.2,2
		c0.6,0.9,1,1.8,1.2,2.9c0.2,1.1,0.4,2.2,0.4,3.5v16h3.1V79.1L234.5,79.1z M257.3,78.5L257.3,78.5c0-1-0.1-2.1-0.2-3.1
		c-0.2-1-0.4-2-0.8-2.9c-0.4-0.9-1-1.7-1.7-2.4c-0.7-0.7-1.6-1.3-2.7-1.7c-1.1-0.4-2.4-0.6-3.9-0.6c-0.9,0-1.8,0.1-2.7,0.2
		c-0.9,0.2-1.8,0.4-2.7,0.8c-0.9,0.3-1.7,0.8-2.5,1.3l0.9,2.2c0.6-0.4,1.3-0.8,2.1-1.1c0.7-0.3,1.5-0.5,2.3-0.7
		c0.8-0.1,1.6-0.2,2.3-0.2c1.3,0,2.4,0.2,3.3,0.6c0.8,0.4,1.5,0.9,2,1.6c0.5,0.7,0.8,1.4,1,2.1c0.2,0.8,0.3,1.5,0.4,2.2
		c0,0.7,0.1,1.4,0,1.9c-3.5,0-6.5,0.3-8.9,1.1c-2.4,0.8-4.2,1.9-5.4,3.4c-1.2,1.5-1.8,3.3-1.8,5.4c0,0.9,0.2,1.9,0.5,2.7
		c0.3,0.9,0.8,1.7,1.5,2.4c0.7,0.7,1.5,1.3,2.5,1.7c1,0.4,2.1,0.6,3.5,0.7c1.4,0,2.6-0.2,3.7-0.7c1.1-0.4,2-1,2.8-1.6
		c0.8-0.7,1.4-1.4,1.8-2.1h0.2l0.3,3.8h2.9c-0.1-1-0.2-2.1-0.3-3.2c-0.1-1.1-0.1-2.2-0.1-3.3V78.5L257.3,78.5z M254.2,86.8
		L254.2,86.8c0,0.4-0.1,0.9-0.3,1.5c-0.2,0.6-0.5,1.2-0.8,1.8c-0.4,0.6-0.9,1.2-1.5,1.8c-0.6,0.5-1.3,1-2.2,1.3
		c-0.9,0.3-1.9,0.5-3,0.5c-0.9,0-1.8-0.2-2.5-0.6c-0.8-0.4-1.4-1-1.9-1.8c-0.5-0.8-0.7-1.8-0.7-3.1c0-1.3,0.3-2.3,0.8-3.2
		c0.5-0.8,1.3-1.5,2.1-2c0.9-0.5,1.9-0.9,3-1.2c1.1-0.3,2.3-0.4,3.5-0.5c1.2-0.1,2.4-0.1,3.5-0.1V86.8L254.2,86.8z M300,79.4
		L300,79.4c0-2-0.2-3.7-0.6-5c-0.4-1.4-0.9-2.5-1.6-3.4c-0.7-0.9-1.4-1.5-2.2-2c-0.8-0.5-1.5-0.8-2.3-1c-0.8-0.2-1.4-0.3-2-0.3
		c-1.3,0-2.4,0.2-3.3,0.5c-1,0.3-1.8,0.8-2.5,1.3c-0.7,0.5-1.3,1.2-1.9,1.8c-0.5,0.7-0.9,1.4-1.3,2.1h-0.1c-0.4-1.1-0.9-2.1-1.7-3
		c-0.7-0.9-1.6-1.5-2.6-2c-1-0.5-2.1-0.7-3.3-0.7c-1.5,0-2.7,0.2-3.8,0.7c-1.1,0.5-2,1.1-2.8,1.9c-0.8,0.8-1.4,1.7-2,2.7h-0.1
		l-0.2-4.7h-2.8c0,0.7,0.1,1.4,0.1,2.1c0,0.7,0.1,1.4,0.1,2.1c0,0.7,0,1.5,0,2.4v20.5h3V78.9c0-1.2,0.2-2.3,0.6-3.3
		c0.4-1,1-1.9,1.7-2.7c0.7-0.8,1.5-1.4,2.4-1.8c0.9-0.4,1.8-0.7,2.8-0.7c1.1,0,2,0.2,2.8,0.6c0.8,0.4,1.5,1,2,1.7
		c0.5,0.7,0.9,1.6,1.2,2.6c0.3,1,0.4,2.1,0.4,3.3v17h3.1V78.3c0-1,0.2-2,0.6-3c0.4-0.9,0.9-1.8,1.6-2.5c0.7-0.7,1.4-1.3,2.3-1.7
		c0.9-0.4,1.8-0.6,2.8-0.6c1.5,0,2.8,0.4,3.7,1.1c1,0.8,1.7,1.8,2.2,3.2c0.5,1.4,0.7,3.1,0.7,5v15.8h3.1V79.4z"/>
	<path class="st0" d="M23.7,68.5h-7.4v17.2c0,1.1-0.2,2-0.6,2.8c-0.4,0.8-1,1.4-1.7,1.8c-0.7,0.4-1.4,0.6-2.3,0.6
		c-1,0-1.8-0.3-2.5-0.8c-0.6-0.6-1.1-1.3-1.4-2.4c-0.3-1-0.4-2.2-0.4-3.7V68.5H0v16.6c0,2.8,0.4,5.1,1.1,6.8c0.7,1.7,1.8,3,3.1,3.8
		C5.6,96.6,7.1,97,8.9,97c1.1,0,2-0.1,2.9-0.4c0.9-0.3,1.6-0.6,2.3-1c0.7-0.4,1.2-0.9,1.7-1.4c0.5-0.5,0.9-1,1.1-1.4h0.1l0.4,3.7
		h6.5c0-1.2-0.1-2.5-0.2-3.9c-0.1-1.4-0.1-3-0.1-4.6V68.5L23.7,68.5z M54.3,79.3L54.3,79.3c0-1.9-0.2-3.6-0.7-5.1
		c-0.5-1.4-1.1-2.6-1.9-3.5c-0.8-0.9-1.8-1.6-2.9-2.1c-1.1-0.4-2.3-0.7-3.6-0.7c-1,0-1.9,0.1-2.8,0.4c-0.9,0.2-1.6,0.6-2.3,1
		c-0.7,0.4-1.3,0.9-1.8,1.4c-0.5,0.5-0.9,1-1.2,1.5H37l-0.4-3.8h-6.4c0,1.2,0.1,2.5,0.1,3.9c0,1.4,0.1,2.9,0.1,4.5v19.5h7.4V79.8
		c0-1,0.2-2,0.5-2.7c0.3-0.7,0.7-1.3,1.2-1.8c0.5-0.4,1-0.8,1.5-1c0.5-0.2,1.1-0.3,1.6-0.3c1,0,1.9,0.3,2.5,0.8
		c0.6,0.5,1.1,1.3,1.4,2.2c0.3,0.9,0.4,1.9,0.4,3.1v16.3h7.4V79.3L54.3,79.3z M68.3,68.5L68.3,68.5h-7.4v27.9h7.4V68.5L68.3,68.5z
		 M74.5,86.8L74.5,86.8c0,0.5,0,1.1,0.1,1.8c0,0.7,0.1,1.4,0.3,2.2c0.2,0.8,0.4,1.5,0.7,2.2c0.3,0.7,0.8,1.4,1.4,2
		c0.6,0.6,1.4,1,2.3,1.4c0.9,0.3,2.1,0.5,3.4,0.5c1.1,0,2.1-0.1,2.9-0.2c0.9-0.1,1.5-0.3,2-0.5l-0.1-5.7c-0.4,0.1-0.7,0.1-1.1,0.2
		c-0.4,0-0.8,0.1-1.3,0.1c-1.1,0-2-0.4-2.5-1.1c-0.5-0.8-0.8-2-0.8-3.6V73.9H88v-5.5h-6.2v-7.3l-7.3,2.2V86.8L74.5,86.8z
		 M113.4,79.5L113.4,79.5c0-1.5-0.2-3-0.5-4.4c-0.4-1.4-0.9-2.6-1.8-3.7c-0.8-1.1-1.9-1.9-3.4-2.6c-1.4-0.6-3.2-0.9-5.4-1
		c-1.5,0-2.8,0.1-4,0.4c-1.2,0.2-2.3,0.5-3.3,0.9c-1,0.4-1.7,0.7-2.4,1.1l1.4,4.8c0.9-0.6,2-1,3.2-1.4c1.2-0.3,2.4-0.5,3.7-0.5
		c1.3,0,2.4,0.2,3.1,0.6c0.7,0.4,1.2,1,1.5,1.7c0.3,0.7,0.4,1.6,0.4,2.5c-2.2,0-4.3,0.2-6.1,0.6c-1.9,0.4-3.5,1.1-4.8,1.9
		c-1.4,0.9-2.4,2-3.2,3.3c-0.7,1.3-1.1,2.9-1.1,4.7c0,1.1,0.2,2.2,0.6,3.2c0.4,1,0.9,1.9,1.7,2.7c0.7,0.8,1.6,1.4,2.6,1.8
		c1,0.4,2.2,0.7,3.5,0.7c1,0,2-0.1,3-0.4c0.9-0.3,1.8-0.7,2.5-1.2c0.8-0.5,1.4-1.1,2-1.9h0.1l0.5,2.9h6.7c-0.1-0.6-0.2-1.2-0.2-1.9
		c-0.1-0.7-0.1-1.5-0.1-2.3c0-0.8,0-1.6,0-2.4V79.5L113.4,79.5z M106.2,86.8L106.2,86.8c0,0.9-0.2,1.6-0.5,2.3
		c-0.3,0.6-0.7,1.1-1.2,1.5c-0.5,0.4-1,0.6-1.5,0.8c-0.5,0.2-1,0.2-1.5,0.2c-0.6,0-1.2-0.1-1.7-0.4c-0.5-0.3-1-0.7-1.3-1.2
		c-0.3-0.6-0.5-1.3-0.5-2.2c0-1,0.3-1.8,0.7-2.5c0.5-0.7,1.1-1.2,1.9-1.5c0.8-0.4,1.7-0.6,2.6-0.8c1-0.1,2-0.2,3-0.2V86.8
		L106.2,86.8z M136.1,69.4L136.1,69.4c-0.8-0.4-1.8-0.8-3-1.1c-1.2-0.3-2.5-0.5-3.9-0.5c-1.6,0-3,0.2-4.2,0.7
		c-1.3,0.4-2.3,1.1-3.2,1.9c-0.9,0.8-1.6,1.7-2.1,2.8c-0.5,1.1-0.7,2.2-0.7,3.5c0,1,0.2,2,0.7,3c0.5,1,1.2,1.9,2.3,2.8
		c1,0.9,2.4,1.7,4.2,2.4c1,0.4,1.8,0.8,2.4,1.2c0.6,0.4,1,0.8,1.3,1.2c0.3,0.4,0.4,0.9,0.4,1.5c0,0.9-0.3,1.6-1,2
		c-0.6,0.5-1.6,0.8-2.9,0.8c-0.8,0-1.6-0.1-2.4-0.3c-0.8-0.2-1.6-0.4-2.3-0.7c-0.7-0.3-1.3-0.6-1.8-0.9l-1.4,5.4
		c0.6,0.4,1.3,0.7,2.2,1c0.8,0.3,1.7,0.5,2.7,0.7c1,0.2,2,0.2,3,0.2c2.3,0,4.3-0.4,5.9-1.1c1.6-0.7,2.9-1.8,3.7-3.1
		c0.9-1.3,1.3-2.9,1.3-4.7c0-1.9-0.6-3.6-1.7-5c-1.1-1.4-2.9-2.6-5.2-3.5c-1.1-0.4-1.9-0.8-2.5-1.2c-0.6-0.4-1.1-0.8-1.3-1.1
		c-0.3-0.4-0.4-0.8-0.4-1.4c0-0.5,0.1-1,0.4-1.4c0.3-0.4,0.7-0.7,1.2-0.9c0.5-0.2,1.1-0.3,1.9-0.3c0.7,0,1.4,0.1,2,0.2
		c0.6,0.1,1.3,0.3,1.8,0.6c0.6,0.2,1,0.4,1.4,0.7L136.1,69.4z"/>
	<polygon id="XMLID_1_" class="st1" points="0,23.7 66.8,0 133.6,23.7 133.6,52 66.8,28.3 0,52 	"/>
</g>
</svg>
